<svg width="82" height="68" viewBox="0 0 82 68" fill="none" xmlns="http://www.w3.org/2000/svg">
<path fill-rule="evenodd" clip-rule="evenodd" d="M71.603 48.0125C72.3403 48.0265 72.521 48.0453 72.8873 48.1483C73.1251 48.2138 73.4343 48.3168 73.577 48.3776C73.7197 48.4432 73.9575 48.5696 74.3618 48.8271L74.671 48.6492C74.8422 48.5462 75.1799 48.3917 75.4225 48.3027C75.6604 48.2091 76.0599 48.1014 76.2977 48.0593C76.6355 48.0031 76.9209 47.9891 77.5012 48.0078C78.0719 48.0265 78.3573 48.0593 78.6427 48.1342C78.852 48.1904 79.1755 48.3027 79.3562 48.387C79.537 48.4713 79.8224 48.6398 79.9888 48.7615C80.1506 48.8785 80.3836 49.1079 80.5026 49.2671C80.6262 49.4309 80.7879 49.6884 80.8593 49.8429C80.9354 49.9974 81.04 50.3251 81.0924 50.5685C81.1827 50.9851 81.1875 51.2052 81.1875 54.1591C81.1875 57.1224 81.1827 57.3096 81.1019 57.333C81.0591 57.3424 80.8688 57.3752 80.6881 57.4079C80.5073 57.436 80.0887 57.4594 79.7605 57.4641C79.4323 57.4641 79.0566 57.4407 78.9281 57.4126C78.7949 57.3799 78.5952 57.2956 78.4762 57.2254C78.3336 57.1364 78.2146 57.01 77.9768 56.584L77.953 53.8923C77.934 51.8184 77.915 51.1677 77.8674 51.0601C77.8341 50.9805 77.758 50.8681 77.7009 50.8119C77.6439 50.7511 77.5107 50.6575 77.406 50.6013C77.2586 50.5264 77.1254 50.503 76.8114 50.4983C76.45 50.4983 76.3738 50.5123 75.765 50.8026V57.3096L75.6556 57.333C75.5985 57.3424 75.413 57.3799 75.2418 57.4079C75.0705 57.436 74.6567 57.4641 74.3142 57.4641C73.8624 57.4641 73.6198 57.4407 73.4105 57.3845C73.1964 57.319 73.0728 57.2488 72.9063 57.0802C72.7446 56.9258 72.6637 56.7947 72.6066 56.6074C72.54 56.3827 72.5305 56.0223 72.5305 53.8689C72.5305 51.795 72.521 51.3456 72.4592 51.1396C72.4069 50.9617 72.3403 50.8588 72.2071 50.7558C72.1119 50.6762 71.9122 50.5779 71.7695 50.5357C71.5935 50.4889 71.408 50.4702 71.1987 50.4889C71.0132 50.503 70.7801 50.5591 70.3425 50.7558V54.0327C70.3425 57.113 70.3377 57.3096 70.2569 57.3284C70.2141 57.3377 70.1237 57.3611 70.0571 57.3752C69.9905 57.3892 69.7004 57.422 69.415 57.4501C69.0344 57.4875 68.7681 57.4875 68.4399 57.4501C68.1925 57.422 67.9024 57.3611 67.7977 57.3143C67.6931 57.2675 67.5361 57.1552 67.4505 57.0615C67.3696 56.9679 67.2602 56.8087 67.2127 56.7104C67.1366 56.5513 67.1318 56.2704 67.1175 53.3305C67.108 50.4702 67.1128 50.0957 67.1841 49.8663C67.2412 49.6744 67.3268 49.5433 67.5314 49.3373C67.6788 49.1828 67.9499 48.9675 68.1307 48.8551C68.3114 48.7428 68.6492 48.5789 68.8775 48.4853C69.1105 48.3964 69.453 48.2793 69.6385 48.2278C69.8288 48.1763 70.157 48.1061 70.3663 48.0687C70.6422 48.0172 70.9846 48.0031 71.603 48.0125ZM1.6575 48.2325C1.99046 48.2325 2.31866 48.2559 2.4899 48.2981C2.64687 48.3355 2.85616 48.4198 2.95129 48.4853C3.05118 48.5509 3.18436 48.6913 3.2462 48.799C3.31279 48.9113 3.38414 49.1267 3.41268 49.2811C3.44597 49.4684 3.465 50.8588 3.465 57.3096L3.33181 57.333C3.26046 57.3424 3.05118 57.3799 2.87042 57.4079C2.68492 57.4407 2.2711 57.4641 1.94289 57.4594C1.53858 57.4594 1.27221 57.4313 1.11049 57.3845C0.977307 57.3424 0.80607 57.2675 0.729964 57.2113C0.649103 57.1598 0.539701 57.0475 0.482622 56.9679C0.420787 56.8836 0.339925 56.7104 0.292359 56.584C0.230524 56.3968 0.211497 56.0878 0.192471 54.9924C0.182958 54.2434 0.182958 52.4504 0.230524 48.3776L0.668129 48.3074C0.910714 48.27 1.35783 48.2372 1.6575 48.2325ZM51.8299 63.2783C51.9631 63.2924 52.1248 63.3252 52.1866 63.3532C52.2437 63.3813 52.3484 63.4609 52.5481 63.6528L52.5719 63.4984C52.6005 63.3579 52.6147 63.3486 52.7907 63.3486C52.9477 63.3486 52.9762 63.3626 52.9572 63.4281C52.9429 63.475 52.8193 64.0929 52.6766 64.7998C52.5339 65.5301 52.3817 66.1667 52.3293 66.2744C52.2723 66.3774 52.1486 66.5365 52.0487 66.6302C51.9441 66.7191 51.7395 66.8408 51.5921 66.897C51.4399 66.9532 51.2163 67 51.0926 67C50.9642 67 50.7454 66.9672 50.6027 66.9251C50.46 66.883 50.303 66.8315 50.2602 66.8081C50.1794 66.7659 50.1794 66.7613 50.2602 66.6255C50.3125 66.5272 50.3649 66.4944 50.4124 66.5131C50.4505 66.5319 50.6027 66.574 50.7454 66.6114C50.9547 66.6676 51.0593 66.6723 51.2686 66.6302C51.4113 66.5974 51.6016 66.5272 51.692 66.471C51.7823 66.4148 51.9012 66.2838 51.9631 66.1808C52.0249 66.0778 52.0867 65.8858 52.1391 65.5254L52.0011 65.6518C51.925 65.722 51.8061 65.8016 51.7348 65.825C51.6587 65.8531 51.4684 65.8765 51.3067 65.8765C51.0879 65.8765 50.9594 65.8484 50.8167 65.7688C50.7169 65.7126 50.5789 65.5909 50.5218 65.502C50.46 65.413 50.3887 65.2305 50.3601 65.1041C50.3268 64.9262 50.3316 64.7904 50.3791 64.5423C50.4172 64.3644 50.4838 64.1444 50.5266 64.0601C50.5694 63.9805 50.6931 63.812 50.8072 63.695C50.9166 63.5733 51.0688 63.4469 51.1497 63.4047C51.2306 63.3673 51.3542 63.3158 51.4351 63.2971C51.516 63.2737 51.692 63.269 51.8299 63.2783ZM51.0546 63.9197C50.9594 64.032 50.85 64.224 50.8072 64.355C50.7692 64.4814 50.7311 64.7061 50.7311 64.8466C50.7311 64.9917 50.7692 65.1696 50.812 65.2539C50.8548 65.3381 50.9594 65.4411 51.0451 65.4832C51.1497 65.5347 51.2829 65.5535 51.4636 65.5441C51.6587 65.5301 51.7728 65.4926 51.9012 65.3943C52.0011 65.3241 52.1296 65.1602 52.1962 65.0198C52.2627 64.8887 52.3388 64.6406 52.3674 64.4721C52.4054 64.2333 52.4054 64.1257 52.3531 63.9852C52.3198 63.8822 52.239 63.7652 52.1724 63.7184C52.1058 63.6716 51.9678 63.6248 51.8632 63.6107C51.7585 63.5967 51.573 63.6154 51.4494 63.6528C51.2876 63.7043 51.1735 63.7792 51.0546 63.9197ZM31.9807 63.372L32.1947 64.4253C32.4088 65.4364 32.4183 65.4739 32.4896 65.3615C32.5325 65.296 32.8131 64.8185 33.6693 63.3486H34.0974L33.1413 64.9028C32.6181 65.7594 32.1281 66.5365 32.0568 66.6255C31.9854 66.7144 31.8427 66.8362 31.7381 66.8923C31.6382 66.9532 31.4908 67 31.4099 67C31.3338 67 31.1863 66.9719 31.0912 66.9298C30.9913 66.8923 30.9105 66.8455 30.9105 66.8221C30.9057 66.8034 30.9438 66.7425 30.9913 66.6817C31.0674 66.5834 31.0912 66.5787 31.2196 66.6255C31.3195 66.6583 31.4051 66.6629 31.505 66.6302C31.5859 66.6021 31.7048 66.5225 31.7714 66.4523C31.8427 66.3774 31.9522 66.2323 32.0235 66.1199C32.0901 66.0122 32.1472 65.8905 32.1472 65.8531C32.1472 65.8156 32.0283 65.2726 31.8856 64.6453C31.7381 64.0227 31.6097 63.475 31.5954 63.4281C31.5764 63.3532 31.6002 63.3439 31.9807 63.372Z" fill="black" stroke="black" stroke-width="0.0338246"/>
<path fill-rule="evenodd" clip-rule="evenodd" d="M2.2738 44.0006C2.31667 43.9958 2.4691 44.02 2.60725 44.0491C2.74063 44.0782 2.93594 44.146 3.03598 44.1945C3.13125 44.2478 3.30751 44.3836 3.4266 44.5047C3.54569 44.6259 3.69336 44.8392 3.75529 44.9749C3.81722 45.1155 3.88391 45.3385 3.90296 45.4742C3.92678 45.639 3.90773 45.8183 3.86009 46.0316C3.81722 46.2061 3.73147 46.4243 3.66954 46.5164C3.60762 46.6084 3.48853 46.7587 3.39802 46.846C3.30751 46.9381 3.13125 47.0641 2.99787 47.1368C2.81685 47.2289 2.66918 47.2628 2.3786 47.2822C2.06419 47.2968 1.9451 47.2822 1.71168 47.1901C1.50685 47.1126 1.34965 47.0059 1.1591 46.812C0.973319 46.623 0.863755 46.4582 0.7923 46.2594C0.725609 46.0801 0.6875 45.8717 0.6875 45.6681C0.6875 45.4645 0.725609 45.2561 0.7923 45.0719C0.858991 44.8974 0.982846 44.7035 1.13528 44.5387C1.26867 44.3981 1.46397 44.2381 1.56878 44.1848C1.67358 44.1363 1.85459 44.0733 1.97369 44.0491C2.09278 44.0249 2.22616 44.0055 2.2738 44.0006ZM10.2624 47.3937C10.6531 47.3889 11.0675 47.4179 11.3104 47.4616C11.5343 47.5003 11.8678 47.5827 12.0488 47.6458C12.2346 47.7088 12.4918 47.8203 12.6204 47.8881C12.7538 47.956 12.9348 48.0626 13.1921 48.2468L13.6446 47.9996C13.8923 47.8687 14.2687 47.6991 14.4783 47.6264C14.6879 47.5537 15.0404 47.4664 15.2643 47.4373C15.5215 47.3986 15.9264 47.384 16.3837 47.4034C16.8839 47.4179 17.2126 47.4567 17.4794 47.5294C17.689 47.5827 18.0653 47.733 18.313 47.8542C18.6798 48.0384 18.8322 48.1499 19.1228 48.4504C19.3801 48.717 19.5325 48.9206 19.6564 49.1823C19.7516 49.3811 19.8707 49.6768 19.9136 49.8367C19.9898 50.0985 19.9993 50.4475 20.0136 53.5788C20.0279 56.8362 20.0232 57.0349 19.9469 57.0543C19.8993 57.0688 19.723 57.1028 19.5516 57.1367C19.3801 57.1658 18.9752 57.1949 18.6465 57.1949C18.3082 57.1949 17.9271 57.1706 17.7652 57.1319C17.5937 57.0931 17.4031 57.0058 17.2888 56.9186C17.1745 56.8265 17.0411 56.652 16.8125 56.1866L16.7886 53.4237C16.7648 50.7819 16.7601 50.6511 16.6695 50.4717C16.6171 50.3651 16.4981 50.2294 16.4075 50.1712C16.317 50.1082 16.136 50.0355 16.0026 50.0015C15.8645 49.9676 15.6454 49.9579 15.4786 49.9724C15.3071 49.9918 15.0737 50.0597 14.5974 50.2972V53.6661C14.5974 56.8313 14.5926 57.0349 14.5164 57.0591C14.4687 57.0688 14.283 57.1028 14.0972 57.1367C13.9114 57.1658 13.5065 57.1949 13.1921 57.1949C12.8777 57.1949 12.4918 57.1658 12.3346 57.1319C12.1631 57.0931 11.9726 57.0058 11.8583 56.9186C11.7439 56.8265 11.6105 56.652 11.3819 56.1866L11.3581 53.3995C11.339 51.4072 11.32 50.5832 11.2771 50.5153C11.2485 50.462 11.1628 50.3602 11.0865 50.2924C11.0151 50.2197 10.8769 50.1227 10.7864 50.0742C10.6626 50.0064 10.5101 49.987 10.191 49.9821C9.80989 49.9821 9.72891 49.9967 9.16203 50.273L9.1668 53.6515C9.1668 56.8362 9.16203 57.0349 9.08581 57.0543C9.03818 57.0688 8.87145 57.0979 8.71425 57.127C8.55705 57.1512 8.26647 57.1852 8.07116 57.1997C7.87585 57.2191 7.51381 57.2094 7.27563 57.1803C6.97552 57.1464 6.75639 57.0931 6.59443 57.0107C6.46581 56.9428 6.30384 56.8168 6.24192 56.7295C6.17522 56.6471 6.08471 56.4775 6.03708 56.3563C5.9561 56.1527 5.95133 55.9055 5.95133 52.7936C5.95133 49.5168 5.95133 49.4441 6.05137 49.2308C6.10377 49.1096 6.23239 48.9157 6.33719 48.7994C6.43722 48.6831 6.64206 48.5037 6.78497 48.4068C6.92788 48.305 7.19941 48.1499 7.38043 48.0578C7.56621 47.9608 7.90919 47.8203 8.14261 47.7379C8.38079 47.6603 8.74283 47.5585 8.95243 47.5149C9.16203 47.4761 9.40021 47.4325 9.47643 47.4228C9.55742 47.4131 9.90993 47.3986 10.2624 47.3937ZM26.1873 47.3986C26.7875 47.3889 27.1115 47.4131 27.5211 47.481C27.8117 47.5343 28.2214 47.6312 28.4262 47.6991C28.6263 47.7718 28.9598 47.9075 29.1646 48.0142C29.3647 48.1159 29.6934 48.3292 29.8887 48.4843C30.084 48.6443 30.3698 48.9351 30.5222 49.1339C30.6794 49.3326 30.8843 49.6622 30.9843 49.861C31.0843 50.0597 31.2082 50.3651 31.2654 50.5396C31.3225 50.7141 31.3987 51.0485 31.4369 51.2909C31.475 51.5333 31.5083 52.0228 31.5083 52.3815C31.5083 52.7402 31.4845 53.191 31.4607 53.3752C31.4321 53.5594 31.3702 53.889 31.3178 54.1023C31.2606 54.3156 31.1129 54.7082 30.9843 54.9748C30.8509 55.2414 30.6318 55.6001 30.4937 55.7746C30.3555 55.9491 30.1126 56.1963 29.9601 56.3224C29.8029 56.4532 29.5457 56.6277 29.3885 56.7198C29.2313 56.8071 28.9216 56.9477 28.6978 57.0252C28.4739 57.1028 28.069 57.2094 27.7927 57.253C27.4068 57.3209 27.1258 57.3306 26.5779 57.3112C26.0968 57.2967 25.7586 57.2579 25.2251 57.1076L25.1965 60.3068L24.9107 60.3747C24.7344 60.4135 24.3057 60.4425 23.7912 60.4474C22.9957 60.4522 22.9433 60.4474 22.7003 60.331C22.5527 60.2632 22.3716 60.1275 22.2811 60.016C22.1954 59.9093 22.1001 59.7251 22.0668 59.604C22.0191 59.4343 22.0048 58.2564 22.0048 49.2551L22.1334 48.9885C22.2097 48.8285 22.3669 48.6201 22.5384 48.4601C22.6908 48.3195 22.9766 48.1208 23.1719 48.019C23.3672 47.9172 23.7007 47.7815 23.9103 47.7136C24.1199 47.6458 24.4629 47.5585 24.6725 47.5149C24.8821 47.4761 25.1298 47.4325 25.2203 47.4228C25.3108 47.4131 25.7443 47.3986 26.1873 47.3986ZM25.5252 50.113L25.2298 50.2197L25.2203 54.4659C25.5347 54.6113 25.7634 54.6791 25.9348 54.7082C26.1683 54.7519 26.335 54.7519 26.6018 54.7082C26.7971 54.6791 27.0686 54.6064 27.1972 54.5434C27.3306 54.4852 27.5164 54.3544 27.6164 54.2574C27.7117 54.1605 27.8451 53.9666 27.9118 53.8357C27.9784 53.7 28.069 53.4576 28.1118 53.288C28.169 53.0747 28.188 52.8033 28.188 52.3573C28.188 52.0083 28.1642 51.6254 28.1309 51.4945C28.1023 51.3685 28.0356 51.1503 27.988 51.0098C27.9356 50.874 27.7974 50.6462 27.6831 50.5153C27.5402 50.3505 27.3782 50.2294 27.1686 50.1324C26.9162 50.0161 26.7875 49.987 26.435 49.9773C26.1968 49.9676 25.9634 49.9724 25.911 49.987C25.8586 50.0015 25.6824 50.0597 25.5252 50.113ZM37.3914 47.3937C37.7487 47.3889 38.1822 47.4179 38.4156 47.4616C38.6395 47.5003 38.9825 47.5876 39.1778 47.6555C39.3731 47.7233 39.697 47.8687 39.8923 47.9754C40.0876 48.0869 40.3878 48.2856 40.5545 48.4262C40.726 48.5619 40.9642 48.8043 41.0928 48.9642C41.2214 49.1242 41.4072 49.4199 41.5072 49.6186C41.612 49.8173 41.7454 50.147 41.8026 50.3457C41.8931 50.6462 41.9169 50.8207 41.9169 51.3394C41.9169 51.892 41.9026 51.9938 41.8121 52.1634C41.7597 52.2701 41.6501 52.4155 41.5739 52.4833C41.5024 52.556 41.3548 52.6578 41.25 52.7112C41.1452 52.7645 40.9642 52.8323 40.8451 52.8663C40.726 52.8953 39.5875 53.0747 38.3156 53.2686C37.0389 53.4625 35.9814 53.6273 35.9623 53.6418C35.948 53.6564 35.9433 53.7097 35.9576 53.763C35.9719 53.8163 36.0624 53.9666 36.1672 54.1023C36.2958 54.272 36.4482 54.398 36.6816 54.524C36.8627 54.621 37.1485 54.7373 37.32 54.7858C37.5439 54.8488 37.8059 54.873 38.2727 54.873C38.6252 54.873 39.0444 54.8439 39.2016 54.81C39.3588 54.7761 39.6351 54.7034 39.8209 54.6501C40.0067 54.5967 40.3115 54.4804 40.8451 54.2235L41.0642 54.4271C41.1833 54.5434 41.3357 54.7422 41.3976 54.8779C41.4596 55.0088 41.5263 55.2414 41.5453 55.3868C41.5644 55.5646 41.5485 55.7423 41.4977 55.92C41.45 56.0848 41.35 56.269 41.2357 56.4048C41.1309 56.5308 40.9118 56.6956 40.7212 56.8022C40.5402 56.8992 40.2544 57.0252 40.0829 57.0785C39.9114 57.1319 39.5684 57.2094 39.3207 57.2482C39.073 57.287 38.6443 57.3354 38.368 57.3548C38.0821 57.3694 37.6296 57.3597 37.32 57.3306C37.0199 57.2967 36.6007 57.2336 36.3911 57.1852C36.1815 57.1319 35.8385 57.0252 35.6289 56.9428C35.4193 56.8604 35.081 56.6956 34.881 56.5744C34.6761 56.4532 34.3475 56.1963 34.1474 56.0024C33.9473 55.8134 33.6901 55.5226 33.5805 55.3626C33.4662 55.2026 33.309 54.9312 33.2232 54.7567C33.1375 54.5822 33.0184 54.3011 32.9612 54.1266C32.9041 53.9521 32.8183 53.5837 32.7707 53.3025C32.704 52.9002 32.6897 52.6287 32.7135 51.9938C32.7326 51.4072 32.7659 51.0825 32.8421 50.7819C32.8945 50.5541 33.0232 50.1954 33.1232 49.9821C33.2185 49.7689 33.3709 49.4829 33.4614 49.352C33.5519 49.2163 33.6996 49.0175 33.7901 48.9012C33.8854 48.7849 34.1093 48.5716 34.295 48.4213C34.4808 48.2759 34.7571 48.082 34.9143 47.9899C35.0715 47.9027 35.3907 47.7621 35.6289 47.6797C35.8671 47.5973 36.2196 47.5003 36.4149 47.4616C36.6102 47.4276 37.0532 47.3937 37.3914 47.3937ZM36.5816 49.9773C36.4482 50.0403 36.2434 50.21 36.1148 50.3554C35.9623 50.5299 35.8575 50.7092 35.7908 50.9031C35.7432 51.0631 35.7003 51.2521 35.7003 51.3248C35.7003 51.4412 35.7146 51.4557 35.8099 51.4363C35.8671 51.4266 36.5816 51.3054 37.3914 51.1697C38.2012 51.034 38.8729 50.9128 38.8824 50.9031C38.8872 50.8886 38.8682 50.8062 38.8396 50.7189C38.8158 50.6365 38.711 50.4572 38.6157 50.3263C38.5204 50.1954 38.3537 50.0403 38.2489 49.9773C38.1441 49.9191 37.9297 49.8464 37.7725 49.8173C37.6153 49.7883 37.4438 49.764 37.3914 49.7689C37.339 49.7737 37.1913 49.7931 37.058 49.8173C36.9293 49.8416 36.715 49.9094 36.5816 49.9773ZM48.062 47.4131C48.4574 47.4276 48.767 47.4616 48.9195 47.51C49.0528 47.5537 49.2434 47.6361 49.3482 47.6991C49.453 47.7621 49.5864 47.8687 49.6435 47.9318C49.7007 47.9899 49.796 48.1499 49.8531 48.2856C49.9389 48.4746 49.9627 48.6152 49.9579 48.9157C49.9579 49.2114 49.9293 49.3811 49.7197 49.9337L49.1291 49.9676C48.7718 49.987 48.2621 50.0549 47.8476 50.1421C47.4665 50.2245 47.0712 50.3215 46.7758 50.4281L46.752 57.0349L46.5519 57.0834C46.4376 57.1076 46.0994 57.1512 45.7993 57.1803C45.4182 57.2143 45.1228 57.2191 44.8227 57.1803C44.5464 57.1512 44.3035 57.0882 44.1463 57.0107C44.0081 56.9428 43.8414 56.8168 43.7747 56.7295C43.708 56.6471 43.6223 56.4629 43.5746 56.3321C43.5032 56.1139 43.4937 55.7649 43.4746 53.0844C43.4651 51.4315 43.4794 49.9143 43.5032 49.7155C43.527 49.5168 43.5889 49.2551 43.6461 49.1339C43.7033 49.0127 43.8605 48.7994 43.9986 48.6588C44.151 48.5037 44.4083 48.3195 44.656 48.1887C44.8799 48.0723 45.2848 47.9027 45.5611 47.8057C45.8374 47.7136 46.2994 47.5973 46.5853 47.5391C46.8711 47.4858 47.1855 47.4325 47.276 47.4179C47.3665 47.4082 47.7238 47.4034 48.062 47.4131ZM52.9209 47.6506C53.4259 47.6603 53.645 47.6894 53.826 47.7572C53.9689 47.8106 54.1357 47.9269 54.2452 48.0432C54.3453 48.1499 54.4596 48.3341 54.5072 48.4553C54.5787 48.654 54.5882 49.0563 54.612 57.0349L54.4834 57.0591C54.4072 57.0688 54.1976 57.1076 54.0166 57.1367C53.8355 57.1658 53.4354 57.1949 53.1353 57.1949C52.8352 57.1949 52.4827 57.1706 52.3493 57.1415C52.2207 57.1076 52.0158 57.0204 51.8967 56.9477C51.7538 56.8556 51.6347 56.7247 51.3965 56.2836L51.3727 47.7766L51.8158 47.7088C52.0873 47.6652 52.5017 47.6409 52.9209 47.6506ZM58.1609 47.6506C58.5944 47.6652 58.9469 47.6942 59.0613 47.733C59.1661 47.7718 59.3423 47.8881 59.4566 47.9948C59.5995 48.1208 59.6996 48.2759 59.7615 48.4407C59.8473 48.6831 59.852 48.8479 59.852 51.034C59.852 52.4058 59.8711 53.5061 59.8997 53.6903C59.933 53.8745 60.0045 54.0975 60.0807 54.2235C60.1712 54.3738 60.2903 54.4853 60.4713 54.587C60.7095 54.7179 60.7857 54.7325 61.2573 54.747C61.5479 54.7567 61.8766 54.7422 61.9957 54.7131C62.1148 54.6791 62.272 54.6307 62.4768 54.5386L62.472 47.7766L62.796 47.7136C62.9722 47.6845 63.4676 47.6555 63.9011 47.6555C64.3965 47.6555 64.7491 47.6797 64.8539 47.7136C64.9444 47.7476 65.1111 47.8397 65.2254 47.9221C65.3588 48.019 65.4684 48.1547 65.6875 48.6249V55.508L65.5589 55.7746C65.4922 55.92 65.3302 56.1382 65.2016 56.2593C65.073 56.3805 64.7872 56.5696 64.568 56.6811C64.3441 56.7925 64.025 56.9283 63.8535 56.9864C63.682 57.0446 63.3533 57.1319 63.1151 57.1852C62.8769 57.2336 62.4292 57.2967 62.1148 57.3306C61.7813 57.3597 61.3049 57.3694 60.9715 57.3548C60.6571 57.3354 60.2188 57.287 59.9949 57.2482C59.771 57.2094 59.4376 57.1319 59.2566 57.0737C59.0756 57.0204 58.7612 56.8943 58.5658 56.7925C58.3705 56.6908 58.0799 56.5114 57.9227 56.3902C57.7655 56.2739 57.5369 56.0461 57.413 55.891C57.2939 55.731 57.1082 55.4208 57.0034 55.193C56.8986 54.9651 56.7747 54.6161 56.7271 54.4174C56.6556 54.0975 56.6413 53.6903 56.627 50.9516C56.6175 49.2454 56.627 47.8348 56.6461 47.8106C56.6651 47.7912 56.8557 47.7427 57.0653 47.7039C57.3225 47.6603 57.6798 47.6409 58.1609 47.6506ZM37.844 62.1633C37.9345 62.173 38.106 62.2118 38.2251 62.2506C38.3442 62.2893 38.4918 62.3621 38.6776 62.4978L38.4632 62.8032L38.2393 62.6723C38.0964 62.5947 37.9154 62.5366 37.7487 62.522C37.5296 62.5075 37.4438 62.5269 37.2295 62.6432C37.058 62.7304 36.9436 62.8371 36.8865 62.9486C36.8341 63.0407 36.796 63.1764 36.796 63.2491C36.796 63.3267 36.8484 63.443 36.9055 63.5157C36.9675 63.5933 37.2009 63.7484 37.42 63.8696C37.6391 63.9859 37.8916 64.1507 37.9821 64.2331C38.0679 64.3107 38.1727 64.4415 38.2155 64.5239C38.2536 64.6063 38.287 64.7663 38.2917 64.8875C38.2917 65.0329 38.2536 65.188 38.1727 65.348C38.0917 65.5176 37.9821 65.6388 37.8201 65.7503C37.6868 65.8375 37.4962 65.9345 37.3914 65.9636C37.2866 65.9878 37.0723 66.0023 36.9151 65.9878C36.7579 65.9781 36.5244 65.9199 36.3911 65.8666C36.2624 65.8085 36.1005 65.7067 35.9147 65.5128L36.1719 65.251L36.2815 65.3577C36.3434 65.4158 36.472 65.4982 36.5721 65.537C36.6673 65.5806 36.8769 65.6146 37.0341 65.6146C37.2247 65.6146 37.3835 65.5823 37.5105 65.5176C37.6153 65.4643 37.7439 65.348 37.7963 65.2607C37.8535 65.1686 37.8916 65.0184 37.8916 64.8972C37.8916 64.7518 37.8583 64.6548 37.782 64.5579C37.7201 64.4852 37.4867 64.33 37.2676 64.2137C37.0484 64.0974 36.8007 63.952 36.7245 63.8938C36.6483 63.8308 36.5435 63.7047 36.5006 63.6078C36.453 63.5109 36.4149 63.3412 36.4149 63.2249C36.4149 63.1134 36.4625 62.9243 36.5244 62.8032C36.5816 62.6868 36.715 62.5269 36.8198 62.4493C36.9246 62.3717 37.0627 62.2893 37.1294 62.2603C37.1961 62.236 37.3438 62.1972 37.4629 62.1779C37.582 62.1585 37.7535 62.1488 37.844 62.1633ZM29.6219 62.2215H29.8029C29.9173 62.2215 29.9839 62.2457 29.9839 62.2796C29.9839 62.3136 29.9268 62.6141 29.8649 62.9486C29.7982 63.283 29.7458 63.5787 29.7458 63.603C29.7458 63.6272 29.8029 63.5933 29.8744 63.5254C29.9506 63.4527 30.0745 63.3606 30.1507 63.3218C30.2269 63.283 30.3698 63.2346 30.4603 63.2152C30.5556 63.1958 30.7366 63.2055 30.889 63.2443C31.0748 63.2879 31.1987 63.3557 31.3225 63.4769C31.4416 63.603 31.5083 63.729 31.5512 63.918C31.5941 64.0877 31.6036 64.2961 31.5845 64.4997C31.5702 64.6742 31.4988 64.9359 31.4321 65.0814C31.3654 65.2268 31.2225 65.4401 31.1129 65.5564C31.0034 65.6727 30.8271 65.8133 30.7223 65.8666C30.6175 65.9199 30.427 65.9781 30.2936 65.9927C30.1364 66.012 29.9839 65.9927 29.841 65.9393C29.7219 65.9006 29.5695 65.7988 29.4981 65.7164C29.4123 65.6194 29.3551 65.5903 29.3456 65.6243C29.3361 65.6582 29.3123 65.7454 29.298 65.8182C29.2742 65.9345 29.2456 65.9539 29.1027 65.9539C29.0122 65.9539 28.9359 65.9393 28.9359 65.9151C28.9359 65.8957 29.0884 65.0571 29.2789 64.0489L29.6219 62.2215ZM30.3031 63.603C30.2317 63.6175 30.084 63.7144 29.9697 63.8162C29.8553 63.9229 29.7172 64.1168 29.6553 64.267C29.5933 64.4076 29.5314 64.6597 29.5171 64.8148C29.5028 65.0232 29.5171 65.1638 29.5743 65.2898C29.6124 65.3916 29.7172 65.5128 29.8029 65.5661C29.8887 65.6194 30.0459 65.6679 30.1507 65.6679C30.2602 65.6679 30.4317 65.6194 30.5556 65.5515C30.6699 65.4934 30.8414 65.3431 30.9271 65.2268C31.0129 65.1056 31.1177 64.902 31.1558 64.7663C31.1891 64.6354 31.2225 64.427 31.2225 64.3058C31.2225 64.1895 31.1844 64.015 31.1367 63.9229C31.0939 63.8308 30.9986 63.7193 30.9367 63.6708C30.87 63.6272 30.7509 63.5787 30.6747 63.5642C30.5937 63.5496 30.5079 63.5448 30.4841 63.5545C30.4555 63.5642 30.3746 63.5836 30.3031 63.603ZM45.9088 62.2215H46.0898C46.1899 62.2215 46.2756 62.2409 46.2756 62.2603C46.2756 62.2796 46.147 62.9631 45.9898 63.7726C45.8326 64.5869 45.704 65.3092 45.704 65.3722C45.6992 65.4401 45.7278 65.5225 45.7612 65.5564C45.7945 65.5903 45.8612 65.6194 45.9041 65.6194C45.9565 65.6194 45.9898 65.6533 45.9898 65.7115C45.9898 65.7648 45.9755 65.8424 45.966 65.8812C45.9517 65.9296 45.8802 65.9539 45.7754 65.9539C45.6659 65.9539 45.5563 65.9151 45.4658 65.8327C45.3467 65.7357 45.3229 65.6776 45.3229 65.5079C45.3229 65.3964 45.4515 64.6112 45.6135 63.7629L45.9088 62.2215ZM47.6094 62.2215L47.5809 62.4008C47.5618 62.5026 47.5428 62.5996 47.5332 62.619C47.5237 62.6432 47.4284 62.6577 47.1331 62.6577L47.1617 62.4735C47.176 62.3766 47.1998 62.2796 47.2093 62.2554C47.2236 62.236 47.3189 62.2215 47.6094 62.2215ZM39.7256 62.5123C39.8161 62.5123 39.8923 62.5269 39.8923 62.5462C39.8876 62.5705 39.859 62.7256 39.8209 62.9001C39.7828 63.0746 39.7542 63.2297 39.7494 63.2491C39.7494 63.2733 39.8923 63.2879 40.3925 63.2879L40.3687 63.4478C40.3401 63.603 40.3401 63.603 39.678 63.6514L39.5494 64.33C39.4779 64.7033 39.4207 65.0911 39.4207 65.188C39.416 65.3237 39.4493 65.4061 39.5351 65.4934C39.616 65.5758 39.7066 65.6146 39.8209 65.6146C39.9543 65.6146 39.9876 65.634 39.9876 65.7115C39.9876 65.7648 39.9781 65.8424 39.9638 65.8812C39.9479 65.9296 39.8765 65.9539 39.7494 65.9539C39.6446 65.9539 39.4779 65.9151 39.3826 65.8666C39.2635 65.8085 39.1825 65.7261 39.1206 65.5903C39.0778 65.4837 39.0349 65.3189 39.0349 65.2268C39.0349 65.1347 39.0873 64.7857 39.154 64.4512C39.2207 64.1168 39.2826 63.7968 39.2969 63.7338C39.3159 63.6369 39.3016 63.6272 39.154 63.6272C39.0539 63.6272 38.9872 63.603 38.9872 63.5642C38.9872 63.5351 38.9968 63.4575 39.0111 63.3945C39.0301 63.3121 39.073 63.283 39.3874 63.2636L39.4493 62.9486C39.4827 62.7741 39.5208 62.6044 39.5351 62.5705C39.5446 62.5414 39.6303 62.5123 39.7256 62.5123ZM42.0598 63.1958C42.1408 63.1958 42.2885 63.2152 42.3933 63.2443C42.4981 63.2733 42.6457 63.346 42.7219 63.4042C42.8029 63.4575 42.903 63.5933 42.9506 63.6999C42.9982 63.8114 43.0363 64.0101 43.0363 64.1604C43.0363 64.3058 43.0268 64.4755 43.0125 64.5336C42.9887 64.6451 42.9887 64.6451 40.9403 64.6451V64.8245C40.9403 64.9263 40.988 65.1056 41.0451 65.2219C41.1071 65.3431 41.2166 65.4837 41.2881 65.537C41.3976 65.6194 41.4977 65.6388 41.7692 65.6388C42.0503 65.6388 42.1598 65.6146 42.3694 65.5031C42.5123 65.4304 42.6362 65.377 42.6362 65.3819C42.641 65.3916 42.6695 65.4498 42.7029 65.5176C42.7553 65.6243 42.7505 65.6485 42.6743 65.7067C42.6219 65.7406 42.4885 65.8182 42.3694 65.8763C42.2027 65.9539 42.0646 65.9781 41.7502 65.9781C41.431 65.9781 41.3024 65.9539 41.1547 65.8763C41.0499 65.8182 40.9022 65.697 40.8212 65.6049C40.745 65.5079 40.6498 65.348 40.6212 65.2462C40.5878 65.1395 40.5592 64.9699 40.5592 64.8632C40.5592 64.7566 40.5926 64.5482 40.6355 64.4028C40.6736 64.2573 40.7831 64.0247 40.8689 63.8938C40.9594 63.7581 41.088 63.6078 41.1642 63.5496C41.2357 63.4963 41.3738 63.4091 41.4643 63.3606C41.5549 63.3121 41.6978 63.2539 41.774 63.2346C41.855 63.2152 41.9836 63.2006 42.0598 63.1958ZM41.269 63.9277C41.2023 64.015 41.1214 64.1361 41.0928 64.1943L41.0356 64.3058H42.6553C42.6553 63.918 42.6267 63.8356 42.5266 63.7193C42.4123 63.5933 42.3504 63.5642 42.1313 63.5448C41.9216 63.5254 41.8216 63.5448 41.6311 63.6466C41.5024 63.7096 41.3357 63.8356 41.269 63.9277ZM49.6102 63.1958C49.6769 63.1909 49.8103 63.2152 49.9103 63.2394C50.0056 63.2685 50.1389 63.3509 50.2056 63.4333C50.2723 63.5157 50.339 63.6611 50.3533 63.7581C50.3724 63.8792 50.3247 64.2622 50.2104 64.8632C50.1104 65.3722 50.0246 65.823 50.0151 65.8666C49.996 65.9296 49.9436 65.9539 49.8245 65.9539C49.6912 65.9539 49.6578 65.9345 49.6578 65.8569C49.6578 65.8036 49.7245 65.4158 49.8007 64.9941C49.8817 64.5773 49.9532 64.1749 49.9675 64.0974C49.9817 64.0247 49.9722 63.9035 49.9436 63.8211C49.9198 63.7387 49.8531 63.6514 49.8007 63.6272C49.7483 63.603 49.6149 63.5787 49.5054 63.5787C49.3768 63.5787 49.2053 63.6272 49.0433 63.7096C48.9004 63.7871 48.7337 63.9083 48.667 63.9907C48.6051 64.0731 48.5098 64.2186 48.4621 64.3155C48.4097 64.4173 48.3049 64.8196 48.2287 65.2122C48.1477 65.6097 48.0858 65.9345 48.0858 65.9393C48.0858 65.949 48.0001 65.9539 47.8953 65.9539C47.7381 65.9539 47.7095 65.9393 47.7285 65.8666C47.7381 65.823 47.8476 65.2607 47.9667 64.6209C48.0858 63.981 48.1954 63.4188 48.2097 63.3703C48.224 63.3121 48.2764 63.2879 48.5622 63.2879L48.5384 63.5399C48.5193 63.7338 48.5241 63.7775 48.5622 63.7096C48.586 63.666 48.7099 63.5593 48.8385 63.4721C48.9623 63.3848 49.1576 63.2879 49.2767 63.2539C49.3958 63.2249 49.5435 63.1958 49.6102 63.1958ZM45.0514 63.2394C45.2229 63.2394 45.2276 63.2443 45.199 63.3945C45.18 63.4818 45.1609 63.569 45.1514 63.5884C45.1419 63.6126 45.0704 63.6272 44.9894 63.6272C44.9132 63.6272 44.7894 63.6563 44.7179 63.695C44.6417 63.7338 44.5178 63.8356 44.4321 63.9277C44.3511 64.015 44.2273 64.1943 44.1653 64.33C44.0986 64.4609 44.0272 64.65 43.9986 64.7421C43.97 64.8342 43.9129 65.1056 43.87 65.348C43.8271 65.5903 43.7842 65.823 43.7699 65.8666C43.7557 65.9296 43.7033 65.9539 43.5842 65.9539C43.4413 65.9539 43.4174 65.9393 43.4174 65.8424C43.4174 65.7842 43.5175 65.2219 43.6366 64.5966C43.7557 63.9713 43.8605 63.4188 43.8747 63.3703C43.889 63.3121 43.9414 63.2879 44.2273 63.2879L44.1701 63.7968L44.3082 63.6272C44.3845 63.5351 44.5417 63.4091 44.6607 63.3509C44.7751 63.2879 44.9513 63.2394 45.0514 63.2394ZM47.014 63.2879H47.1902C47.2903 63.2879 47.3713 63.3121 47.3713 63.3364C47.3713 63.3606 47.2569 63.9617 46.8711 65.9539H46.6948C46.5472 65.9539 46.5186 65.9393 46.5281 65.8666C46.5376 65.823 46.652 65.2219 46.7806 64.5336L47.014 63.2879Z" fill="black" stroke="black" stroke-width="0.0338246"/>
<path d="M41.8218 0.0689077C41.4601 0.0409431 40.9105 0.0129784 40.6004 0.00365689C40.2903 -0.00566466 39.6984 0.00365689 39.285 0.0223C38.8716 0.0362823 38.2891 0.0782292 37.9931 0.110855C37.6971 0.138819 37.0817 0.227374 36.6307 0.301946C36.1797 0.376519 35.4375 0.530324 34.9865 0.642183C34.5355 0.754041 33.8449 0.954454 33.4597 1.0803C33.0697 1.2108 32.4261 1.4485 32.0268 1.61628C31.6275 1.77941 31.0215 2.0544 30.6879 2.22218C30.3544 2.38531 29.8658 2.64165 29.6074 2.7908C29.349 2.93528 28.7806 3.29416 28.339 3.58313C27.8974 3.8721 27.2632 4.32885 26.9296 4.59918C26.5961 4.86484 26.0746 5.30296 25.7787 5.57328C25.4827 5.83894 25.0035 6.30968 24.7123 6.61729C24.4257 6.92024 24.0029 7.39564 23.7727 7.66597C23.5472 7.94095 23.1761 8.41169 22.9506 8.71464C22.7298 9.02225 22.3539 9.57222 22.1143 9.94508C21.8795 10.3179 21.4379 11.1243 21.1278 11.7395C20.8224 12.3547 20.456 13.161 20.3104 13.5339C20.1694 13.9067 19.958 14.5126 19.8453 14.8855C19.7278 15.2584 19.5587 15.8876 19.4648 16.2837C19.3755 16.6799 19.2534 17.2578 19.2017 17.5654C19.15 17.8731 19.0748 18.3997 19.0326 18.7306C18.995 19.0616 18.9433 19.7374 18.9245 20.2221C18.901 20.7068 18.901 21.5178 18.9198 22.0165C18.9433 22.5152 18.995 23.219 19.0373 23.5778C19.0795 23.9367 19.1641 24.5147 19.2299 24.8596C19.2909 25.2045 19.4319 25.8337 19.5352 26.2578C19.6433 26.6819 19.8312 27.3391 19.9627 27.7259C20.0896 28.1081 20.301 28.6861 20.4325 29.0076C20.5641 29.3292 20.8553 29.9678 21.0808 30.4292C21.3063 30.8906 21.6915 31.5944 21.9311 31.9905C22.1754 32.3914 22.5372 32.946 22.7345 33.2256C22.9318 33.51 23.2982 33.99 23.5472 34.2976C23.7962 34.6052 24.2566 35.1366 24.5713 35.4815C24.8861 35.8217 25.4216 36.353 25.7552 36.6513C26.0887 36.9543 26.5679 37.3644 26.8122 37.5648C27.0565 37.7606 27.5357 38.1148 27.8692 38.3525C28.2028 38.5855 28.7007 38.9164 28.9732 39.0842C29.2457 39.252 29.7625 39.5457 30.1242 39.7414C30.4859 39.9325 31.0872 40.2261 31.4631 40.3939C31.8389 40.5617 32.4308 40.7994 32.7785 40.9299C33.1261 41.0557 33.6664 41.2375 33.9764 41.3261C34.2865 41.4193 34.7939 41.5544 35.1039 41.6337C35.414 41.7082 35.9542 41.8248 36.3019 41.89C36.6495 41.9553 37.1898 42.0392 37.4998 42.0765C37.8099 42.1184 38.4018 42.1743 38.8152 42.2023C39.2709 42.2349 40.0132 42.2442 40.6944 42.2303C41.3145 42.2163 42.1084 42.1697 42.4561 42.1277C42.8037 42.0904 43.3533 42.0159 43.6775 41.9646C44.0017 41.9133 44.5936 41.7921 44.9929 41.7036C45.3922 41.6104 46.0264 41.4426 46.4023 41.3261C46.7781 41.2142 47.3277 41.0278 47.6237 40.9159C47.9197 40.8087 48.4176 40.6083 48.7277 40.4731C49.0378 40.338 49.4793 40.1329 49.7142 40.0164C49.9491 39.9045 50.3813 39.6715 50.6773 39.5084C50.9733 39.3406 51.5793 38.9677 52.0162 38.6787C52.4531 38.3851 53.0497 37.9656 53.3316 37.7419C53.6135 37.5182 54.0832 37.1314 54.3651 36.8797C54.647 36.6327 55.1262 36.1806 55.4221 35.8776C55.7228 35.57 56.155 35.1039 56.3899 34.8336C56.6201 34.5633 56.9677 34.1345 57.165 33.8782C57.3624 33.6218 57.6912 33.1604 57.8979 32.8528C58.1046 32.5452 58.4382 32.0092 58.6402 31.6643C58.8469 31.3194 59.1616 30.7228 59.3495 30.336C59.5375 29.9538 59.8287 29.292 59.9931 28.8678C60.1623 28.4437 60.3925 27.7958 60.5099 27.423C60.6274 27.0501 60.7871 26.4862 60.8669 26.1646C60.9421 25.843 61.0596 25.2977 61.1253 24.9528C61.1911 24.6079 61.2757 24.0812 61.3132 23.7876C61.3508 23.4939 61.4072 22.8834 61.4401 22.436C61.473 21.9373 61.4824 21.2195 61.4683 20.5949C61.4495 20.031 61.4166 19.3692 61.3884 19.1268C61.3653 18.8882 61.3057 18.4419 61.2636 18.1257L61.2616 18.1108L61.177 17.5421H59.8146C59.871 17.8125 59.9274 18.218 59.9791 18.6141C60.0307 19.0103 60.0965 19.7374 60.12 20.2221C60.1529 20.8 60.1529 21.4106 60.12 21.9699C60.0965 22.4453 60.0542 23.0419 60.026 23.2982C59.9978 23.5545 59.9227 24.0672 59.8569 24.4401C59.7958 24.813 59.6549 25.4608 59.5515 25.8849C59.4482 26.3091 59.2462 26.9895 59.11 27.3997C58.9737 27.8098 58.7294 28.4484 58.5697 28.8212C58.4147 29.1941 58.1093 29.8326 57.8932 30.2428C57.6818 30.6529 57.3436 31.2495 57.1415 31.5711C56.9395 31.8927 56.6436 32.3308 56.4885 32.5498C56.3288 32.7689 56.0094 33.1884 55.7698 33.482C55.5349 33.7756 55.1074 34.2697 54.8255 34.5773C54.5389 34.8849 54.102 35.3277 53.8437 35.556C53.59 35.7891 53.2282 36.106 53.0497 36.2598C52.8712 36.409 52.5095 36.6933 52.2511 36.889C51.9927 37.0848 51.5088 37.4203 51.1706 37.6394C50.8323 37.8585 50.3485 38.1614 50.0901 38.3059C49.8317 38.455 49.376 38.6927 49.08 38.8419C48.7841 38.991 48.2532 39.2287 47.9056 39.3779C47.5579 39.5223 46.9331 39.7554 46.5197 39.8952C46.1063 40.0304 45.4298 40.2308 45.0164 40.3333C44.603 40.4359 43.9594 40.571 43.5835 40.6316C43.2077 40.6969 42.5735 40.7854 42.1742 40.8274C41.6715 40.8833 41.0608 40.9066 40.2011 40.9066C39.3414 40.9066 38.7307 40.8833 38.228 40.8274C37.8287 40.7854 37.1945 40.6969 36.8186 40.6316C36.4428 40.571 35.7992 40.4359 35.3858 40.3333C34.9724 40.2308 34.3476 40.0583 33.9999 39.9418C33.6523 39.83 33.0885 39.6249 32.755 39.4944C32.4214 39.3592 31.8671 39.1215 31.5335 38.9631C31.2 38.8046 30.6691 38.5296 30.3591 38.3525C30.049 38.18 29.6168 37.919 29.396 37.7792C29.1752 37.6394 28.7994 37.3877 28.5598 37.2153L28.1229 36.9077C28.6913 36.889 28.884 36.8704 28.9121 36.861C28.9497 36.8471 28.8229 36.67 28.5833 36.409C28.3672 36.1713 28.0242 35.7658 27.8222 35.5094C27.6155 35.2531 27.2773 34.7917 27.0659 34.4841C26.8545 34.1764 26.5632 33.715 26.4129 33.4587C26.2579 33.2023 25.9619 32.6384 25.7505 32.2003C25.5391 31.7622 25.2666 31.1469 25.1445 30.8253C25.027 30.5038 24.8344 29.9305 24.7217 29.5436C24.6089 29.1615 24.4633 28.5835 24.3975 28.2619C24.3317 27.9403 24.2472 27.4603 24.2096 27.1899C24.1673 26.9196 24.1109 26.4069 24.0827 26.0481C24.0499 25.6426 24.0405 24.9621 24.0546 24.2537C24.0687 23.6245 24.1156 22.8694 24.1579 22.5758C24.1955 22.2821 24.2848 21.7555 24.3505 21.4106C24.4163 21.0657 24.5337 20.553 24.6042 20.2687C24.6794 19.9844 24.8438 19.4531 24.9753 19.0802C25.1022 18.7073 25.3042 18.176 25.4263 17.8917C25.5485 17.6074 25.7646 17.1553 25.9008 16.8757C26.0418 16.6007 26.3142 16.1113 26.5115 15.785C26.7088 15.4541 27.0189 14.9787 27.2021 14.7224C27.3853 14.466 27.686 14.0652 27.8692 13.8368C28.0524 13.6085 28.4048 13.1983 28.6538 12.928C28.898 12.6577 29.3256 12.2289 29.6027 11.9725C29.8846 11.7162 30.3544 11.3107 30.6597 11.073C30.9604 10.8353 31.4255 10.4904 31.698 10.304C31.9704 10.1222 32.4355 9.82857 32.7315 9.65612C33.0275 9.47901 33.5489 9.20402 33.8825 9.03623C34.216 8.87311 34.7563 8.63541 35.0804 8.50957C35.4046 8.38373 35.9307 8.19263 36.2549 8.0901C36.579 7.98756 37.0535 7.84774 37.3119 7.78249C37.5703 7.71724 38.0777 7.6147 38.4394 7.54945L39.0971 7.42827C40.3373 8.06679 41.0514 8.4583 41.493 8.70532C41.9346 8.957 42.3151 9.18538 42.3386 9.21334C42.3621 9.24597 42.4514 9.29724 42.5265 9.32986C42.6017 9.36715 42.9446 9.5629 43.2782 9.77264C43.6117 9.97771 44.8191 10.7561 45.956 11.4971C47.0928 12.2428 48.2344 12.9792 48.4928 13.1377C48.7512 13.2962 49.174 13.5432 49.4324 13.6923C49.6908 13.8368 49.935 13.972 49.9726 13.9953C50.0102 14.0186 50.3391 14.1724 50.7008 14.3402C51.0625 14.508 51.7061 14.783 52.1336 14.9461C52.5611 15.1139 53.1531 15.3236 53.449 15.4122C53.745 15.5054 54.1913 15.6312 54.4356 15.6965C54.6799 15.7617 55.253 15.8876 55.704 15.9761C56.155 16.0647 56.6248 16.1486 56.7469 16.1626C56.9697 16.1902 56.9724 16.1951 57.1491 16.5142L57.1556 16.5261C57.259 16.7125 57.3624 16.899 57.3858 16.9362C57.414 16.9875 57.461 16.9083 57.5644 16.638L57.7006 16.2744C57.9919 16.3164 58.7153 16.3443 59.4999 16.363C60.7448 16.3956 60.9186 16.3909 60.9186 16.3303C60.9186 16.2931 60.8435 15.9761 60.7495 15.6312C60.6602 15.2863 60.4864 14.7177 60.369 14.3728C60.2515 14.0279 60.0213 13.4313 59.8616 13.0445C59.7019 12.6623 59.42 12.0518 59.2368 11.6929C59.0583 11.334 58.7905 10.8306 58.6402 10.5743C58.4898 10.3179 58.1751 9.81458 57.9355 9.4557C57.6959 9.09682 57.3389 8.59346 57.1369 8.33712C56.9395 8.08078 56.5684 7.62868 56.3147 7.33505C56.061 7.04142 55.5067 6.46349 55.0886 6.05334C54.6658 5.63853 54.1302 5.14449 53.8953 4.9534C53.6604 4.76231 53.2611 4.44537 53.0027 4.25428C52.7444 4.05853 52.2276 3.69965 51.8518 3.45263C51.4759 3.21027 50.9357 2.87935 50.6538 2.72089C50.3719 2.56242 49.8411 2.2921 49.4793 2.11965C49.1176 1.94254 48.5586 1.69552 48.2344 1.56502C47.9103 1.43917 47.4264 1.25274 47.1539 1.15953C46.8814 1.06631 46.3647 0.907847 46.0029 0.80531C45.6412 0.702773 45.007 0.548967 44.5936 0.460413C44.1802 0.371858 43.5366 0.259999 43.1607 0.208731C42.7849 0.157462 42.1836 0.0968723 41.8218 0.0689077Z" fill="#65AA4F"/>
<path d="M41.6718 9.18124C41.2724 9.13463 40.6946 9.11133 40.1215 9.11133C39.6188 9.11599 39.0457 9.13463 38.853 9.15794C38.6604 9.18124 38.2141 9.25115 37.8665 9.32106C37.5189 9.38631 36.988 9.51215 36.692 9.60537C36.3961 9.69392 35.9169 9.86171 35.635 9.97357C35.3531 10.0901 34.874 10.3091 34.578 10.4676C34.282 10.6214 33.8357 10.8778 33.5914 11.0316C33.3472 11.19 32.9337 11.4883 32.6754 11.6934C32.417 11.8938 32.0271 12.2294 31.811 12.4391C31.5949 12.6442 31.2143 13.0404 30.97 13.3247C30.7258 13.609 30.3358 14.1217 30.1056 14.4666C29.8707 14.8115 29.5184 15.4313 29.3117 15.8415C29.1097 16.2516 28.8513 16.8622 28.7386 17.1931C28.6258 17.524 28.4755 18.0274 28.4097 18.3117C28.3392 18.596 28.2547 19.0248 28.2124 19.2671C28.1748 19.5095 28.1231 20.0362 28.0996 20.4323C28.0762 20.8611 28.0762 21.4391 28.0996 21.8539C28.1231 22.2407 28.1842 22.814 28.2406 23.1356C28.297 23.4572 28.4097 23.9699 28.4943 24.2775C28.5788 24.5851 28.7245 25.0465 28.8231 25.3028C28.9171 25.5592 29.152 26.0859 29.3399 26.468C29.5325 26.8549 29.8473 27.4095 30.0446 27.7031C30.2419 27.9968 30.566 28.4395 30.7633 28.6819C30.9559 28.9243 31.3506 29.3577 31.6371 29.6374C31.9237 29.9217 32.3371 30.2945 32.5579 30.4716C32.7787 30.6488 33.2203 30.9657 33.5445 31.1801C33.8686 31.3898 34.3854 31.6928 34.6954 31.8466C35.0055 32.005 35.4706 32.2148 35.729 32.3126C35.9874 32.4152 36.4524 32.5736 36.7625 32.6669C37.0726 32.7601 37.6034 32.8859 37.937 32.9465C38.2705 33.0071 38.7826 33.077 39.0644 33.105C39.3463 33.1329 39.8772 33.1562 40.2389 33.1562C40.6006 33.1562 41.0986 33.1329 41.3429 33.1096C41.5872 33.0817 41.9912 33.0304 42.2355 32.9885C42.4798 32.9465 42.959 32.844 43.2925 32.7601C43.6261 32.6762 44.1146 32.527 44.373 32.4338C44.6314 32.3406 45.1623 32.1076 45.5475 31.9211C45.9327 31.7347 46.5387 31.3898 46.8864 31.1614C47.234 30.9331 47.7226 30.5742 47.9669 30.3691C48.2112 30.164 48.634 29.7679 48.9112 29.4929C49.1836 29.2132 49.5407 28.8171 49.7051 28.612C49.8695 28.4069 50.1467 28.0201 50.3299 27.7498C50.5084 27.4794 50.7527 27.0833 50.8702 26.8642C50.9876 26.6451 51.1849 26.249 51.3071 25.9787C51.4245 25.7083 51.6124 25.2283 51.7205 24.9067C51.8285 24.5851 51.9648 24.091 52.0305 23.8114C52.0963 23.5271 52.1809 23.0797 52.2184 22.8093C52.256 22.539 52.303 21.9657 52.3171 21.5276C52.3359 21.0569 52.3265 20.4976 52.2936 20.1527C52.2654 19.8311 52.2091 19.3697 52.1668 19.1273C52.1245 18.885 52.0211 18.4096 51.9366 18.0787C51.852 17.7477 51.7017 17.263 51.6077 17.0067C51.5138 16.7503 51.3024 16.2656 51.1426 15.9347C50.9829 15.6038 50.7292 15.1284 50.5789 14.886C50.4286 14.6437 50.2266 14.3314 50.1232 14.2009C49.9776 14.0005 49.846 13.9026 49.4608 13.6882C49.193 13.5437 48.7655 13.2967 48.5071 13.1382C48.2488 12.9798 47.1072 12.2434 45.9703 11.4976C44.8334 10.7566 43.6167 9.97357 43.269 9.75918C42.9214 9.54012 42.5597 9.33971 42.4704 9.31174C42.3811 9.27912 42.0194 9.22319 41.6718 9.18124Z" fill="white"/>
<path d="M39.8983 7.84374C39.4567 7.61536 39.0762 7.43359 39.0527 7.43359C39.0292 7.43359 38.7285 7.48952 38.395 7.55011C38.0614 7.61536 37.5729 7.7179 37.3145 7.78315C37.0561 7.8484 36.5816 7.98823 36.2575 8.09076C35.9333 8.1933 35.4071 8.38439 35.083 8.51023C34.7588 8.63607 34.2186 8.87377 33.885 9.0369C33.5515 9.20469 33.03 9.47967 32.7341 9.65678C32.4381 9.82923 31.973 10.1229 31.7005 10.3046C31.4281 10.4911 30.963 10.836 30.6623 11.0737C30.357 11.3114 29.8872 11.7168 29.6053 11.9732C29.3281 12.2295 28.9006 12.6583 28.6563 12.9286C28.4073 13.199 28.055 13.6091 27.8718 13.8375C27.6886 14.0659 27.3879 14.4667 27.2047 14.723C27.0215 14.9794 26.7114 15.4548 26.5141 15.7857C26.3168 16.1119 26.0443 16.6013 25.9034 16.881C25.7671 17.156 25.551 17.6081 25.4289 17.8924C25.3068 18.1767 25.1047 18.708 24.9779 19.0809C24.8464 19.4537 24.6819 19.985 24.6068 20.2694C24.5363 20.5537 24.4189 21.0663 24.3531 21.4112C24.2873 21.7561 24.1981 22.2828 24.1605 22.5764C24.1182 22.8701 24.0712 23.6251 24.0571 24.2543C24.043 24.9628 24.0524 25.6432 24.0853 26.0487C24.1135 26.4076 24.1699 26.9203 24.2122 27.1906C24.2497 27.4609 24.3343 27.941 24.4001 28.2626C24.4658 28.5842 24.6115 29.1621 24.7242 29.5443C24.837 29.9311 25.0296 30.5044 25.147 30.826C25.2692 31.1476 25.5416 31.7628 25.753 32.2009C25.9645 32.639 26.2604 33.203 26.4154 33.4593C26.5658 33.7157 26.857 34.1771 27.0684 34.4847C27.2799 34.7923 27.6181 35.2537 27.8248 35.5101C28.0268 35.7664 28.3698 36.1719 28.5859 36.4096C28.8254 36.6706 28.9523 36.8477 28.9147 36.8617C28.8865 36.871 28.6939 36.8897 28.4919 36.8943L28.1255 36.9083C28.802 37.3884 29.1778 37.64 29.3986 37.7799C29.6194 37.9197 30.0516 38.1807 30.3616 38.3531C30.6717 38.5303 31.2026 38.8052 31.5361 38.9637C31.8697 39.1222 32.424 39.3599 32.7576 39.495C33.0911 39.6255 33.6548 39.8306 34.0025 39.9425C34.3501 40.059 34.9749 40.2314 35.3884 40.334C35.8018 40.4365 36.4454 40.5717 36.8212 40.6323C37.197 40.6975 37.8312 40.7861 38.2306 40.828C38.7332 40.8839 39.344 40.9072 40.2037 40.9072C41.0634 40.9072 41.6741 40.8839 42.1768 40.828C42.5761 40.7861 43.2103 40.6975 43.5861 40.6323C43.9619 40.5717 44.6056 40.4365 45.019 40.334C45.4324 40.2314 46.1089 40.031 46.5223 39.8959C46.9357 39.756 47.5605 39.523 47.9081 39.3785C48.2558 39.2294 48.7866 38.9917 49.0826 38.8425C49.3786 38.6934 49.8343 38.4557 50.0926 38.3065C50.351 38.1621 50.8349 37.8591 51.1732 37.64C51.5114 37.421 51.9953 37.0854 52.2537 36.8897C52.512 36.6939 52.8738 36.4096 53.0523 36.2605C53.2308 36.1067 53.5926 35.7897 53.8462 35.5567C54.1046 35.3283 54.5415 34.8855 54.8281 34.5779C55.11 34.2703 55.5375 33.7763 55.7724 33.4826C56.0119 33.189 56.3314 32.7695 56.4911 32.5505C56.6462 32.3314 56.9421 31.8933 57.1441 31.5717C57.3461 31.2501 57.6844 30.6536 57.8958 30.2434C58.1119 29.8333 58.4173 29.1947 58.5723 28.8219C58.732 28.449 58.9763 27.8105 59.1125 27.4003C59.2488 26.9902 59.4508 26.3097 59.5541 25.8856C59.6575 25.4615 59.7984 24.8136 59.8595 24.4407C59.9253 24.0679 60.0004 23.5552 60.0286 23.2989C60.0568 23.0425 60.0991 22.4459 60.1226 21.9705C60.1555 21.4112 60.1555 20.8007 60.1226 20.2227C60.0991 19.738 60.0333 19.0109 59.9816 18.6148C59.93 18.2186 59.8736 17.8131 59.8548 17.7153L59.8172 17.5428C61.095 17.5428 61.1561 17.5335 61.1561 17.4636C61.1561 17.417 61.1138 17.1606 61.0574 16.8903L60.9588 16.4009C58.7273 16.345 57.9944 16.317 57.8911 16.303L57.7032 16.2751C57.4636 16.9089 57.4166 16.9882 57.3884 16.9369C57.3649 16.8996 57.2616 16.7132 57.1582 16.5314L57.1517 16.5195C56.975 16.1957 56.9723 16.1908 56.7495 16.1632C56.6274 16.1492 56.1153 16.056 55.6126 15.9535C55.11 15.8556 54.3583 15.6785 53.9449 15.562C53.5315 15.4408 52.9067 15.2404 52.559 15.1099C52.2114 14.9794 51.704 14.779 51.4315 14.6671C51.1591 14.5506 50.755 14.3642 50.5249 14.2523C50.2994 14.1404 50.0973 14.0519 50.0739 14.0612C50.0504 14.0659 50.1772 14.2896 50.3604 14.5599C50.5389 14.8302 50.8537 15.3849 51.0557 15.795C51.2577 16.2052 51.502 16.7505 51.596 17.0068C51.6946 17.2632 51.8403 17.7479 51.9248 18.0788C52.0094 18.4097 52.1127 18.8851 52.155 19.1275C52.1973 19.3698 52.2537 19.8312 52.2819 20.1528C52.3147 20.4977 52.3241 21.057 52.3053 21.5278C52.2912 21.9659 52.2443 22.5392 52.2067 22.8095C52.1691 23.0798 52.0845 23.5272 52.0188 23.8115C51.953 24.0912 51.8168 24.5852 51.7087 24.9068C51.6007 25.2284 51.4127 25.7085 51.2953 25.9788C51.1732 26.2491 50.9758 26.6453 50.8584 26.8643C50.741 27.0834 50.4967 27.4796 50.3181 27.7499C50.1349 28.0202 49.8578 28.4071 49.6933 28.6121C49.5289 28.8172 49.1719 29.2134 48.8994 29.493C48.6222 29.768 48.1994 30.1642 47.9551 30.3692C47.7108 30.5743 47.2223 30.9332 46.8746 31.1616C46.527 31.39 45.921 31.7349 45.5357 31.9213C45.1458 32.1077 44.6196 32.3408 44.3613 32.434C44.1029 32.5272 43.6143 32.6763 43.2808 32.7602C42.9472 32.8441 42.468 32.9467 42.2237 32.9886C41.9794 33.0305 41.5754 33.0818 41.3311 33.1098C41.0869 33.1331 40.5889 33.1564 40.2271 33.1564C39.8654 33.1564 39.3346 33.1331 39.0527 33.1051C38.7708 33.0772 38.2587 33.0072 37.9252 32.9467C37.5917 32.8861 37.0608 32.7602 36.7507 32.667C36.4407 32.5738 35.9756 32.4153 35.7172 32.3128C35.4588 32.2149 34.9937 32.0052 34.6837 31.8467C34.3736 31.6929 33.8569 31.39 33.5327 31.1802C33.2085 30.9658 32.767 30.6489 32.5462 30.4718C32.3254 30.2947 31.9119 29.9218 31.6254 29.6375C31.3388 29.3579 30.9442 28.9244 30.7516 28.682C30.5543 28.4397 30.2301 27.9969 30.0328 27.7033C29.8355 27.4097 29.5207 26.855 29.3281 26.4682C29.1402 26.086 28.9053 25.5593 28.8114 25.303C28.7127 25.0466 28.5671 24.5852 28.4825 24.2776C28.3979 23.97 28.2852 23.4573 28.2288 23.1357C28.1724 22.8141 28.1114 22.2269 28.0879 21.8307C28.0644 21.4019 28.0644 20.824 28.0879 20.4092C28.1114 20.027 28.1631 19.5097 28.2006 19.2673C28.2429 19.0249 28.3275 18.5961 28.3979 18.3118C28.4637 18.0275 28.614 17.5242 28.7268 17.1932C28.8395 16.8623 29.0979 16.2518 29.2999 15.8416C29.5066 15.4315 29.859 14.8116 30.0939 14.4667C30.3241 14.1218 30.714 13.6091 30.9583 13.3248C31.2026 13.0405 31.5831 12.6443 31.7992 12.4393C32.0153 12.2295 32.4052 11.894 32.6636 11.6935C32.922 11.4885 33.3354 11.1902 33.5797 11.0317C33.824 10.8779 34.2703 10.6216 34.5662 10.4678C34.8622 10.3093 35.3414 10.0902 35.6232 9.97371C35.9051 9.86186 36.3843 9.69407 36.6803 9.60551C36.9762 9.5123 37.4977 9.38646 37.8312 9.32121C38.1648 9.25596 38.6863 9.18138 38.9822 9.14876C39.3346 9.11147 39.8842 9.10215 40.556 9.12079C41.1244 9.13944 41.7633 9.17672 41.9748 9.20935C42.1909 9.24197 42.36 9.25129 42.3506 9.23265C42.3459 9.20935 41.9701 8.98097 41.5191 8.72463C41.0681 8.46362 40.3399 8.06746 39.8983 7.84374Z" fill="#C9E00C"/>
<path d="M39.0709 2.87914C38.6575 2.82322 38.0561 2.79525 37.0508 2.78593C36.0549 2.77661 35.4441 2.79059 35.0542 2.8372C34.7442 2.86982 34.2885 2.93507 34.0442 2.97702C33.7999 3.01897 33.3442 3.11218 33.0341 3.18676C32.7241 3.25667 32.2355 3.39183 31.9536 3.48505C31.6718 3.5736 31.1738 3.75537 30.8496 3.88587C30.5255 4.01637 30.0087 4.25873 29.6987 4.4172C29.3886 4.57567 28.9141 4.84133 28.651 5.00912C28.3833 5.17225 27.9088 5.4985 27.594 5.73154C27.2793 5.96458 26.8189 6.33278 26.5746 6.55183C26.3303 6.77089 25.9028 7.18104 25.6256 7.46535C25.3438 7.75431 24.9115 8.24369 24.6579 8.55597C24.4042 8.8729 23.9955 9.43219 23.7465 9.80505C23.4975 10.1779 23.1639 10.7092 22.9995 10.9936C22.8351 11.2779 22.5203 11.8838 22.2948 12.3452C22.0693 12.8066 21.7687 13.4777 21.6277 13.8366C21.4868 14.1955 21.2801 14.7734 21.1721 15.1183C21.064 15.4632 20.8996 16.0738 20.8009 16.47C20.7023 16.8661 20.5754 17.4534 20.5191 17.775C20.4674 18.0966 20.3875 18.6326 20.3452 18.9635C20.3076 19.2944 20.2607 20.0634 20.2466 20.6647C20.2325 21.3405 20.2419 22.0349 20.2748 22.4824C20.3076 22.8785 20.364 23.4471 20.4016 23.7408C20.4392 24.0344 20.5425 24.631 20.6318 25.0691C20.7211 25.5072 20.8808 26.155 20.9841 26.5139C21.0922 26.8728 21.2331 27.3249 21.2989 27.516C21.3647 27.7071 21.515 28.1079 21.6277 28.4015C21.7452 28.6952 22.0177 29.3057 22.2385 29.7532C22.4546 30.2006 22.821 30.8811 23.0559 31.2679C23.2861 31.6501 23.5069 32.009 23.5445 32.0602C23.5821 32.1115 23.6243 32.1441 23.6384 32.1302C23.6525 32.1162 23.5961 31.9484 23.5163 31.7573C23.4411 31.5662 23.272 31.0955 23.1405 30.7086C23.0136 30.3264 22.8351 29.7159 22.7458 29.357C22.6566 28.9981 22.5297 28.4202 22.4687 28.0753C22.4029 27.7304 22.3136 27.1431 22.2667 26.7703C22.2056 26.2529 22.1821 25.7542 22.1821 24.6496C22.1821 23.545 22.2056 23.0463 22.2667 22.529C22.3136 22.1561 22.4029 21.5688 22.4687 21.2239C22.5297 20.8791 22.6472 20.3337 22.727 20.0121C22.8069 19.6906 22.9666 19.1359 23.0841 18.777C23.2015 18.4182 23.4035 17.8635 23.5304 17.5419C23.6572 17.2203 23.9062 16.6657 24.08 16.3068C24.2538 15.948 24.531 15.4259 24.6907 15.1416C24.8552 14.8573 25.1605 14.368 25.3719 14.0464C25.5833 13.7248 25.9028 13.2727 26.0813 13.0443C26.2598 12.8159 26.5605 12.4337 26.7578 12.2054C26.9504 11.977 27.3685 11.5249 27.6786 11.2079C27.9886 10.891 28.4631 10.4389 28.7356 10.2012C29.0081 9.96818 29.4403 9.6093 29.6987 9.40889C29.957 9.20848 30.4973 8.83095 30.8966 8.56995C31.2959 8.30895 31.8127 7.98735 32.0476 7.85685C32.2825 7.72635 32.7992 7.46535 33.1986 7.27425C33.5979 7.08316 34.2321 6.80818 34.6079 6.66835C34.9838 6.52853 35.4113 6.37472 35.5616 6.32346C35.7072 6.27685 35.8294 6.23024 35.8294 6.21626C35.8294 6.20228 35.5381 6.12304 35.1858 6.03915C34.8287 5.95526 34.3354 5.85272 34.0912 5.81543C33.8328 5.77348 33.2221 5.73154 32.6348 5.71756C31.8691 5.69891 31.4838 5.71289 31.0516 5.76882C30.7322 5.81077 30.1919 5.91331 29.8537 6.00186C29.5107 6.09042 29.0081 6.24888 28.7356 6.35608C28.4631 6.46328 28.0027 6.67301 27.7162 6.82682C27.4249 6.97596 27.1618 7.10181 27.1383 7.10181C27.1148 7.10181 27.2041 7.00393 27.3403 6.88741C27.4719 6.77089 27.7725 6.53319 28.0074 6.35608C28.2423 6.18363 28.6088 5.92729 28.8296 5.78281C29.0504 5.64298 29.4638 5.40062 29.7456 5.24216C30.0275 5.08369 30.4832 4.85997 30.7557 4.74345C31.0282 4.62227 31.4838 4.44516 31.7657 4.34263C32.0476 4.24009 32.5033 4.10027 32.7758 4.02569C33.0482 3.95112 33.4804 3.84859 33.7388 3.79732C33.9972 3.74605 34.4858 3.66682 34.8193 3.62021C35.2703 3.56428 35.773 3.54097 36.722 3.54097C37.4877 3.53631 38.2253 3.55962 38.5306 3.5969C38.8125 3.62953 39.3105 3.69944 39.6346 3.75071C39.9588 3.80198 40.5084 3.90451 40.8561 3.98375C41.2037 4.05832 41.8285 4.21679 42.2419 4.33331C42.6553 4.45449 43.3647 4.68286 43.8157 4.84133C44.2667 5.00446 44.9573 5.27478 45.3425 5.43791C45.7324 5.60104 46.1553 5.79213 46.2821 5.85272C46.4136 5.91797 46.9915 6.13236 47.574 6.32346C48.1565 6.51455 48.8847 6.78021 49.1948 6.91537C49.5048 7.05054 49.8055 7.17638 49.8666 7.19968C49.9229 7.22299 49.9605 7.22765 49.9511 7.20434C49.9417 7.1857 49.6317 6.98063 49.2605 6.74293C48.8894 6.50989 48.321 6.16499 47.9968 5.98322C47.6727 5.79679 46.9445 5.41927 46.3761 5.14428C45.8076 4.86929 45.0654 4.53372 44.7318 4.39856C44.3983 4.26339 43.8345 4.05366 43.4869 3.93248C43.1392 3.8113 42.505 3.61555 42.0775 3.49437C41.65 3.37785 40.9312 3.21006 40.4802 3.1215C40.0292 3.03295 39.395 2.92575 39.0709 2.87914Z" fill="#C9E00C"/>
</svg>
