<svg width="38" height="44" viewBox="0 0 38 44" fill="none" xmlns="http://www.w3.org/2000/svg">
<path fill-rule="evenodd" clip-rule="evenodd" d="M22.2815 0.948795C27.32 1.00876 32.3374 2.82743 36.319 6.39286L37.0308 7.06334L37.0318 7.06408L37.0329 7.06472L37.1006 7.12923L37.0932 7.13726L37.2624 7.34031C37.7245 8.02465 37.6579 8.96196 37.0583 9.57481L23.4614 23.454C22.7752 24.1544 21.6511 24.166 20.9507 23.4798C20.2502 22.7937 20.2387 21.6695 20.9248 20.9691L24.0591 17.7697L23.8325 17.6768C21.9952 17.0185 19.8693 17.4604 18.4748 18.9096C16.6744 20.7806 16.7026 23.6881 18.5391 25.5259C20.2894 27.2779 23.1176 27.4845 25.12 26.0069L25.1268 26.0156L25.2164 25.9329L25.4614 25.749C26.1918 25.2005 27.2287 25.3481 27.7771 26.0785C28.3255 26.809 28.178 27.8457 27.4476 28.3941L27.2025 28.5781L27.164 28.6014L27.1676 28.606C23.8152 31.146 19.048 30.7924 16.1232 27.7869C13.1136 24.6942 13.0672 19.842 16.0169 16.6944C18.7047 13.8265 23.0564 13.2595 26.3918 15.2421L26.4788 15.2995L28.6985 13.0337L28.5325 12.906C23.9934 9.75628 17.7397 10.3389 13.8719 14.431C9.72059 18.823 9.79208 25.6949 14.0339 30.0004C17.9861 34.0117 24.2504 34.4652 28.723 31.2226L29.3362 30.7304L30.1176 30.0735C30.8536 29.4553 31.9514 29.5506 32.57 30.2865C33.1887 31.0225 33.0924 32.1202 32.3575 32.7384L31.2544 33.665L31.0609 33.7967L30.7711 34.0301C24.9187 38.281 16.7184 37.6866 11.5483 32.4284C6.00722 26.7929 5.91373 17.8037 11.3364 12.055C16.3962 6.69098 24.5825 5.92743 30.5215 10.0566L31.1444 10.5368L33.3167 8.31992L32.6419 7.80236C25.7597 2.7864 16.0595 3.24051 9.67914 9.23767C2.5356 15.9519 2.20194 27.1133 8.93198 34.2339C14.9562 40.6076 24.6413 41.6196 31.816 36.9802L32.4558 36.5448L32.5023 36.5138L32.8291 36.2678L33.1591 35.9537L34.1891 34.9753L34.5424 34.6782C35.2964 34.0449 36.4206 34.1427 37.053 34.8963C37.6864 35.65 37.5892 36.774 36.8351 37.4074L35.7966 38.2799L35.7099 38.3391L35.3577 38.6342C26.7036 45.5072 14.0792 44.6749 6.42812 36.5527C-1.56643 28.0664 -1.16985 14.7779 7.31678 6.77495C11.5086 2.82204 16.9072 0.884919 22.2815 0.948795Z" fill="#FE7300"/>
</svg>
