<svg width="101" height="27" viewBox="0 0 101 27" fill="none" xmlns="http://www.w3.org/2000/svg">
<g clip-path="url(#clip0_1933_128)">
<path d="M36.7415 21.5411C38.5329 22.2908 41.1525 23.1716 42.7913 21.9689C44.2273 20.915 44.0014 19.0617 44.0014 17.4855C42.9367 18.0749 41.7767 18.3697 40.5218 18.3697C39.533 18.3697 38.6062 18.1842 37.741 17.8135C36.8758 17.4428 36.1202 16.9341 35.4737 16.2877C34.8272 15.6412 34.3185 14.8853 33.9478 14.0204C33.5768 13.1552 33.3916 12.2281 33.3916 11.2395C33.3916 10.2508 33.5771 9.32392 33.9478 8.45873C34.3185 7.59376 34.8272 6.83792 35.4737 6.19143C36.1202 5.54494 36.876 5.03646 37.741 4.66554C38.6062 4.29462 39.5332 4.10938 40.5218 4.10938C41.5103 4.10938 42.4374 4.29484 43.3026 4.66554C44.1678 5.03646 44.9234 5.54494 45.5699 6.19143C46.2164 6.83792 46.7251 7.59376 47.0958 8.45873C47.4665 9.32392 47.652 10.251 47.652 11.2395V18.3699C47.652 25.8448 41.8106 27.641 35.3553 24.6476L36.7413 21.5416L36.7415 21.5411ZM40.5218 14.7189C40.978 14.7189 41.4154 14.6334 41.8338 14.4621C42.2522 14.2909 42.6181 14.0532 42.9319 13.7492C43.2455 13.4449 43.4975 13.0885 43.6877 12.6797C43.8778 12.2709 43.9825 11.8384 44.0016 11.3819V11.2393C44.0016 10.7641 43.9112 10.3125 43.7306 9.88467C43.55 9.45689 43.3028 9.08597 42.989 8.77235C42.6751 8.45851 42.3044 8.21138 41.8766 8.03073C41.4489 7.85008 40.9972 7.75975 40.522 7.75975C40.0468 7.75975 39.5949 7.85008 39.1671 8.03073C38.7393 8.21138 38.3686 8.45851 38.0548 8.77235C37.741 9.08619 37.4938 9.45689 37.3132 9.88467C37.1325 10.3125 37.0422 10.7641 37.0422 11.2393C37.0422 11.7146 37.1325 12.1664 37.3132 12.594C37.4938 13.0218 37.741 13.3927 38.0548 13.7063C38.3686 14.0201 38.7393 14.2673 39.1671 14.4479C39.5949 14.6286 40.0465 14.7189 40.522 14.7189H40.5218Z" fill="#6D2CDA"/>
<path d="M86.5109 7.94993L86.4923 4.1482H83.5546L83.5732 0.976562L79.649 0.981593L79.6709 4.13858H73.2646C75.2874 4.89661 76.2598 5.92495 77.1178 7.79815H79.649V12.8465C79.649 16.5209 80.7259 18.3674 85.2546 18.1942C85.6468 18.1793 87.6783 18.0569 88.124 18.0114C87.2311 17.034 86.4796 15.9422 86.5109 14.2248C85.8775 14.2632 85.338 14.2755 84.9005 14.2289C84.038 14.1364 83.5732 13.8123 83.5732 12.9985V7.95015H86.5109V7.94993Z" fill="#6D2CDA"/>
<path d="M15.589 9.3958C15.4939 8.90153 15.2612 8.49255 14.8903 8.16953C14.5196 7.84629 14.0774 7.68466 13.5641 7.68466C13.0317 7.68466 12.5707 7.86531 12.1808 8.22639C11.791 8.58769 11.5771 9.0345 11.5391 9.56683V18.3228H7.88827V9.68099C7.86924 9.12964 7.66476 8.65899 7.27503 8.26904C6.8853 7.87931 6.41465 7.68445 5.8633 7.68445C5.35 7.68445 4.90297 7.84607 4.52264 8.16931C4.14254 8.49256 3.91421 8.90131 3.8381 9.39558V18.3228H0.1875V9.68099C0.1875 8.90131 0.339499 8.16931 0.643934 7.48477C0.947932 6.80023 1.35691 6.20623 1.87021 5.70234C2.3835 5.19844 2.98253 4.79909 3.66707 4.5045C4.3514 4.20969 5.08362 4.0625 5.8633 4.0625C6.60492 4.0625 7.30368 4.20028 7.95957 4.47607C8.61546 4.75185 9.20006 5.12737 9.71357 5.60261C10.2081 5.12737 10.7878 4.75163 11.4536 4.47607C12.1191 4.20028 12.8224 4.0625 13.5641 4.0625C14.3437 4.0625 15.0755 4.20991 15.7601 4.5045C16.4446 4.79931 17.0436 5.19844 17.5569 5.70234C18.0702 6.20623 18.479 6.80045 18.7832 7.48477C19.0876 8.16931 19.2396 8.90131 19.2396 9.68099V18.3228H17.1042H15.5888V18.3213H19.2392V11.6484H15.5888V9.39558L15.589 9.3958Z" fill="#6D2CDA"/>
<path d="M77.1553 18.3193L73.5045 18.3123V11.1927C73.5045 10.7174 73.4142 10.2656 73.2335 9.83802C73.0529 9.41024 72.8057 9.03931 72.4919 8.72569C72.1781 8.41185 71.8073 8.16472 71.3796 7.98407C70.9518 7.80342 70.5002 7.7131 70.0249 7.7131C69.5497 7.7131 69.0978 7.80342 68.6701 7.98407C68.2423 8.16472 67.8716 8.41185 67.5577 8.72569C67.2439 9.03953 66.9968 9.41024 66.8161 9.83802C66.6355 10.2658 66.5451 10.7174 66.5451 11.1927V18.3231H62.8945V11.1927C62.8945 10.2039 63.08 9.27705 63.4507 8.41186C63.8214 7.54688 64.3301 6.79104 64.9766 6.14456C65.6231 5.49807 66.3789 4.98937 67.2439 4.61866C68.1091 4.24774 69.0362 4.0625 70.0247 4.0625C71.0132 4.0625 71.9403 4.24796 72.8055 4.61866C73.6707 4.98937 74.4263 5.49807 75.0728 6.14456C75.7193 6.79104 76.2282 7.54688 76.5987 8.41186C76.9694 9.27683 77.1549 10.2043 77.1549 11.1927V18.3193H77.1553Z" fill="#6D2CDA"/>
<path d="M52.8001 13.1495L62.2726 11.9162C62.3133 11.3955 62.2973 10.8548 62.2243 10.2945C61.6996 6.26536 58.4254 3.62539 54.5296 4.13256C50.3137 4.68151 47.8314 8.12543 48.3491 12.101C48.8668 16.0768 52.0946 18.7772 56.6574 18.1832C59.1924 17.8531 61.0452 16.6621 62.1167 14.6773L58.6749 13.2531C58.2176 13.9097 57.3393 14.4582 56.2454 14.6006C54.7779 14.7917 53.4877 14.4711 52.8001 13.1497V13.1495ZM52.331 10.1716C52.5274 8.76208 53.4442 7.88289 54.9651 7.68496C56.166 7.52859 57.4395 7.93275 58.068 9.42475L52.331 10.1716Z" fill="#6D2CDA"/>
<path d="M93.6518 4.53516C95.8671 4.53516 97.0984 5.04014 98.2632 6.0488C99.4278 7.0579 100.109 8.49041 100.126 10.5738L100.188 18.2977H96.0991L96.1135 16.3745C95.4408 17.6709 94.1279 18.319 92.1751 18.319C91.1415 18.319 90.247 18.1383 89.4923 17.7774C88.7373 17.4164 88.1672 16.9282 87.7816 16.313C87.396 15.6976 87.2031 14.9962 87.2031 14.2084C87.2031 12.945 87.6873 11.9643 88.6553 11.2671C89.6233 10.5698 91.1168 10.221 93.135 10.221H96.4978C96.4158 8.80972 94.7679 8.10418 92.9629 8.10418C92.323 8.10418 91.6747 8.20675 91.0184 8.4119C90.3621 8.61704 89.8039 8.90004 89.3447 9.26112L87.7694 6.08598C88.5079 5.59368 89.4061 5.21226 90.4647 4.94151C91.523 4.67075 92.5856 4.53538 93.652 4.53538L93.6518 4.53516ZM93.4795 15.3654C94.021 15.3654 94.4969 15.2339 94.9074 14.9715C95.3175 14.709 95.6129 14.3232 95.7934 13.8148V12.6578H93.7749C92.4129 12.6578 91.7318 13.1092 91.7318 14.0116C91.7318 14.4219 91.8878 14.7499 92.1996 14.9962C92.5113 15.2422 92.938 15.3654 93.4795 15.3654Z" fill="#6D2CDA"/>
<path d="M26.3417 4.53516C28.5569 4.53516 29.788 5.04014 30.9528 6.0488C32.1174 7.0579 32.7985 8.49041 32.8153 10.5738L32.8772 18.2977H28.7886L28.8028 16.3745C28.13 17.6709 26.8172 18.319 24.8644 18.319C23.8308 18.319 22.9363 18.1383 22.1815 17.7774C21.4266 17.4164 20.8564 16.9282 20.4708 16.313C20.0853 15.6976 19.8926 14.9962 19.8926 14.2084C19.8926 12.945 20.3766 11.9643 21.3448 11.2671C22.3127 10.5698 23.8063 10.221 25.8245 10.221H29.1873C29.1052 8.80972 27.4573 8.10418 25.6523 8.10418C25.0124 8.10418 24.3642 8.20675 23.7079 8.4119C23.0513 8.61704 22.4934 8.90004 22.0339 9.26112L20.4588 6.08598C21.1971 5.59368 22.0956 5.21226 23.1541 4.94151C24.2124 4.67075 25.2751 4.53538 26.3417 4.53538V4.53516ZM26.1694 15.3654C26.7109 15.3654 27.1868 15.2339 27.5971 14.9715C28.0071 14.709 28.3026 14.3232 28.4832 13.8148V12.6578H26.4648C25.1027 12.6578 24.4217 13.1092 24.4217 14.0116C24.4217 14.4219 24.5776 14.7499 24.8895 14.9962C25.2012 15.2422 25.6279 15.3654 26.1694 15.3654Z" fill="#6D2CDA"/>
<path d="M19.2398 13.252H15.5518V18.3233H19.2398V13.252Z" fill="#CC00C1"/>
</g>
<defs>
<clipPath id="clip0_1933_128">
<rect width="100" height="25.047" fill="white" transform="translate(0.1875 0.976562)"/>
</clipPath>
</defs>
</svg>
