<svg width="433" height="741" viewBox="0 0 433 741" fill="none" xmlns="http://www.w3.org/2000/svg">
<path d="M316.562 199.778C312.775 166.161 297.15 140.119 269.688 121.653C242.225 102.951 207.661 93.5994 165.994 93.5994C136.165 93.5994 110.36 98.3343 88.5795 107.804C66.7992 117.037 49.8722 129.821 37.7983 146.156C25.9612 162.255 20.0426 180.602 20.0426 201.199C20.0426 218.481 24.0672 233.396 32.1165 245.943C40.4025 258.491 51.1743 269.026 64.4318 277.548C77.9261 285.834 92.3674 292.818 107.756 298.5C123.144 303.945 137.94 308.443 152.145 311.994L223.168 330.46C246.368 336.142 270.161 343.836 294.545 353.543C318.93 363.249 341.539 376.033 362.372 391.895C383.206 407.757 400.014 427.406 412.798 450.844C425.819 474.281 432.33 502.335 432.33 535.006C432.33 576.199 421.676 612.776 400.369 644.736C379.299 676.696 348.641 701.909 308.395 720.375C268.385 738.841 219.972 748.074 163.153 748.074C108.703 748.074 61.5909 739.433 21.8182 722.151C-17.9545 704.868 -49.0862 680.366 -71.5767 648.642C-94.0672 616.682 -106.496 578.803 -108.864 535.006H1.22159C3.35228 561.284 11.875 583.183 26.7898 600.702C41.9413 617.984 61.2358 630.886 84.6733 639.409C108.348 647.695 134.271 651.838 162.443 651.838C193.456 651.838 221.037 646.985 245.185 637.278C269.569 627.335 288.745 613.604 302.713 596.085C316.681 578.33 323.665 557.615 323.665 533.94C323.665 512.397 317.509 494.759 305.199 481.028C293.125 467.297 276.671 455.934 255.838 446.938C235.241 437.941 211.922 430.01 185.881 423.145L99.9432 399.707C41.7046 383.846 -4.46022 360.527 -38.5511 329.75C-72.4053 298.973 -89.3324 258.254 -89.3324 207.591C-89.3324 165.687 -77.9687 129.111 -55.2415 97.8608C-32.5142 66.6108 -1.73768 42.3447 37.0881 25.0625C75.9138 7.54354 119.711 -1.21594 168.48 -1.21594C217.723 -1.21594 261.165 7.42517 298.807 24.7074C336.686 41.9896 366.515 65.7822 388.295 96.0852C410.076 126.151 421.439 160.716 422.386 199.778H316.562Z" fill="#232222"/>
</svg>
